<?xml version="1.0" encoding="UTF-8"?>
<svg class="logo-small" viewBox="0 0 797 797" version="1.1" xmlns="http://www.w3.org/2000/svg" xmlns:xlink="http://www.w3.org/1999/xlink">
    <!-- Generator: Sketch 58 (84663) - https://sketch.com -->
    <title>cafe-logo-maker-a950</title>
    <desc>Created with Sketch.</desc>
    <g id="cafe-logo-maker-a950" stroke="none" stroke-width="1" fill="none" fill-rule="evenodd">
        <circle id="Oval" stroke="#731817" stroke-width="15" fill="#FBF5F3" cx="398.5" cy="398.5" r="391"></circle>
        <g id="tree" transform="translate(148.000000, 142.000000)" fill="#731817">
            <path d="M242.629,21.953 C242.629,31.246 232.918,41.086 223.484,41.086 C211.859,41.086 202.148,31.246 202.148,21.953 C202.148,10.473 211.859,0.633 223.484,0.633 C232.918,0.496 242.629,10.336 242.629,21.953 Z" id="Fill-26"></path>
            <path d="M317.57,21.953 C317.57,31.246 308.133,41.086 298.285,41.086 C286.801,41.086 277.363,31.246 277.363,21.953 C277.363,10.473 286.664,0.633 298.285,0.633 C308.133,0.496 317.57,10.336 317.57,21.953 Z" id="Fill-27"></path>
            <path d="M402.355,50.52 C402.355,62.137 393.059,69.789 383.074,69.789 C371.312,69.789 362.016,62.137 362.016,50.52 C362.016,39.039 371.312,29.605 383.074,29.605 C393.059,29.605 402.355,38.902 402.355,50.52 Z" id="Fill-28"></path>
            <path d="M358.32,187.332 C358.32,198.812 348.477,208.242 336.715,208.242 C327.551,208.242 317.57,198.812 317.57,187.332 C317.57,177.492 327.414,168.062 336.715,168.062 C348.477,168.062 358.32,177.492 358.32,187.332 Z" id="Fill-29"></path>
            <path d="M402.355,281.367 C402.355,292.848 393.059,302.688 383.074,302.688 C371.312,302.688 362.016,292.848 362.016,281.367 C362.016,269.75 371.312,262.094 383.074,262.094 C393.059,262.094 402.355,269.887 402.355,281.367 Z" id="Fill-30"></path>
            <path d="M309.91,551.441 C306.355,551.441 303.484,548.707 303.484,545.152 L303.484,234.074 L219.105,149.473 C218.012,148.242 217.191,146.602 217.191,144.961 L217.191,21.953 C217.191,18.398 220.062,15.527 223.621,15.527 C227.039,15.527 229.91,18.398 229.91,21.953 L229.91,142.367 L314.422,226.969 C315.52,228.062 316.34,229.84 316.34,231.48 L316.34,545.152 C316.34,548.707 313.465,551.441 309.91,551.441 Z" id="Fill-31"></path>
            <polygon id="Fill-32" points="189.613 75.094 226.035 111.562 217.035 120.543 180.609 84.074"></polygon>
            <polygon id="Fill-33" points="314.422 284.238 305.398 275.215 376.781 203.871 376.781 54.344 389.637 54.344 389.637 209.199 387.449 211.113"></polygon>
            <path d="M358.32,79.492 C358.32,91.113 348.477,98.902 336.715,98.902 C327.551,98.902 317.57,91.113 317.57,79.492 C317.57,68.148 327.414,60.359 336.715,60.359 C348.477,60.359 358.32,68.012 358.32,79.492 Z" id="Fill-34"></path>
            <path d="M446.664,202.641 C446.664,212.07 437.09,221.91 425.332,221.91 C416.031,221.91 406.184,212.07 406.184,202.641 C406.184,191.16 416.031,181.32 425.469,181.32 C437.09,181.32 446.664,191.16 446.664,202.641 Z" id="Fill-35"></path>
            <polygon id="Fill-36" points="447.758 280.41 418.902 251.57 418.902 206.605 431.758 206.605 431.758 246.238 456.922 271.391"></polygon>
            <path d="M427.52,108.195 C427.52,119.676 435.312,127.469 446.801,127.469 C458.562,127.469 467.859,119.812 467.859,108.195 C467.859,96.578 458.562,87.148 446.801,87.148 C435.176,87.285 427.52,96.578 427.52,108.195 Z" id="Fill-37"></path>
            <polygon id="Fill-38" points="438.59 109.777 447.379 118.961 385.621 178.004 376.828 168.82"></polygon>
            <polygon id="Fill-39" points="336.418 73.172 345.738 82.02 304.586 125.328 295.266 116.48"></polygon>
            <polygon id="Fill-40" points="257.508 81.367 266.766 90.086 225.773 133.551 216.52 124.832"></polygon>
            <polygon id="Fill-41" points="185.137 175.516 194.457 184.363 153.305 227.672 143.984 218.824"></polygon>
            <polygon id="Fill-42" points="373.289 216.512 364.402 225.797 321.422 184.695 330.309 175.41"></polygon>
            <path d="M481.398,219.863 C481.398,231.344 490.699,241.184 500.68,241.184 C512.441,241.184 521.742,231.344 521.742,219.863 C521.742,208.379 512.441,200.59 500.68,200.59 C490.836,200.59 481.398,208.242 481.398,219.863 Z" id="Fill-43"></path>
            <path d="M359.961,530.117 C356.543,530.117 353.535,527.113 353.535,523.559 L353.535,364.328 C353.535,362.551 354.355,361.051 355.723,359.82 L492.477,221.227 C494.938,218.633 498.902,218.633 501.227,221.227 C503.965,223.688 503.965,227.789 501.227,230.25 L366.391,366.926 L366.391,523.559 C366.391,527.113 363.656,530.117 359.961,530.117 Z" id="Fill-44"></path>
            <polygon id="Fill-45" points="378.758 276.934 387.816 286.051 314.441 358.844 305.387 349.727"></polygon>
            <path d="M479.348,329.613 C479.348,339.043 471.555,348.883 460.066,348.883 C448.578,348.883 439.004,339.043 439.004,329.613 C439.004,318.133 448.578,308.43 460.066,308.43 C471.555,308.43 479.348,318.133 479.348,329.613 Z" id="Fill-46"></path>
            <polygon id="Fill-47" points="454.699 324.258 463.762 333.18 363.66 434.723 354.602 425.801"></polygon>
            <path d="M119.551,50.52 C119.551,62.137 128.984,69.789 138.832,69.789 C150.32,69.789 159.754,62.137 159.754,50.52 C159.754,39.039 150.457,29.605 138.832,29.605 C128.984,29.605 119.551,38.902 119.551,50.52 Z" id="Fill-48"></path>
            <path d="M163.723,187.332 C163.723,198.812 173.566,208.242 182.867,208.242 C194.492,208.242 204.336,198.812 204.336,187.332 C204.336,177.492 194.492,168.062 182.867,168.062 C173.43,168.062 163.723,177.492 163.723,187.332 Z" id="Fill-49"></path>
            <path d="M119.551,281.367 C119.551,292.848 127.207,302.688 138.832,302.688 C150.457,302.688 159.754,292.848 159.754,281.367 C159.754,269.75 150.457,262.094 138.832,262.094 C127.207,262.094 119.551,269.887 119.551,281.367 Z" id="Fill-50"></path>
            <path d="M211.859,551.441 C208.441,551.441 205.566,548.707 205.566,545.152 L205.566,231.344 C205.566,229.703 206.25,228.062 207.484,226.832 L291.996,142.23 L291.996,21.953 C291.996,18.398 295.004,15.527 298.422,15.527 C301.98,15.527 304.852,18.398 304.852,21.953 L304.852,145.098 C304.852,146.738 304.168,148.379 302.938,149.609 L218.285,234.074 L218.285,545.152 C218.285,548.707 215.414,551.441 211.859,551.441 Z" id="Fill-51"></path>
            <polygon id="Fill-52" points="207.348 284.238 132.406 209.199 132.406 54.344 145.125 54.344 145.125 203.871 216.371 275.215"></polygon>
            <path d="M163.723,79.492 C163.723,91.113 173.566,98.902 182.867,98.902 C194.492,98.902 204.336,91.113 204.336,79.492 C204.336,68.148 194.492,60.359 182.867,60.359 C173.43,60.359 163.723,68.012 163.723,79.492 Z" id="Fill-53"></path>
            <path d="M75.105,202.641 C75.105,212.07 84.816,221.91 94.25,221.91 C105.738,221.91 115.586,212.07 115.586,202.641 C115.586,191.16 105.738,181.32 94.25,181.32 C84.816,181.32 75.105,191.16 75.105,202.641 Z" id="Fill-54"></path>
            <polygon id="Fill-55" points="71.961 280.41 62.934 271.391 87.961 246.238 87.961 206.605 100.68 206.605 100.68 251.57"></polygon>
            <path d="M238.938,91.113 C238.938,102.594 248.234,110.383 259.859,110.383 C271.211,110.383 279.004,102.594 279.004,91.113 C279.004,79.492 271.211,69.789 259.859,69.789 C248.234,69.789 238.938,79.492 238.938,91.113 Z" id="Fill-56"></path>
            <path d="M238.938,241.184 C238.938,250.477 248.234,260.453 259.859,260.453 C271.211,260.453 279.004,250.477 279.004,241.184 C279.004,229.703 271.211,219.863 259.859,219.863 C248.234,219.863 238.938,229.703 238.938,241.184 Z" id="Fill-57"></path>
            <path d="M238.938,398.91 C238.938,410.391 248.234,419.82 259.859,419.82 C271.211,419.82 279.004,410.391 279.004,398.91 C279.004,387.426 271.348,379.773 259.859,379.773 C248.234,379.773 238.938,387.426 238.938,398.91 Z" id="Fill-58"></path>
            <path d="M94.25,108.195 C94.25,119.676 84.816,127.469 75.105,127.469 C63.48,127.469 54.047,119.812 54.047,108.195 C54.047,96.578 63.48,87.148 75.105,87.148 C84.816,87.285 94.25,96.578 94.25,108.195 Z" id="Fill-59"></path>
            <polygon id="Fill-60" points="83.504 109.77 143.371 169.195 134.41 178.215 74.543 118.785"></polygon>
            <path d="M40.371,219.863 C40.371,231.344 31.07,241.184 19.445,241.184 C9.602,241.184 0.164,231.344 0.164,219.863 C0.164,208.379 9.602,200.59 19.445,200.59 C30.934,200.59 40.371,208.242 40.371,219.863 Z" id="Fill-61"></path>
            <path d="M161.945,530.117 C158.387,530.117 155.652,527.113 155.652,523.559 L155.652,366.926 L20.539,230.25 C18.078,227.789 18.078,223.688 20.539,221.227 C23.004,218.77 26.969,218.77 29.566,221.227 L166.457,359.82 C167.551,361.051 168.371,362.688 168.371,364.328 L168.371,523.559 C168.371,527.113 165.363,530.117 161.945,530.117 Z" id="Fill-62"></path>
            <polygon id="Fill-63" points="143.434 276.918 216.516 349.82 207.434 358.914 134.352 286.008"></polygon>
            <path d="M42.559,329.613 C42.559,339.043 50.352,348.883 61.84,348.883 C73.465,348.883 81.121,339.043 81.121,329.613 C81.121,318.133 73.465,308.43 61.84,308.43 C50.352,308.43 42.559,318.133 42.559,329.613 Z" id="Fill-64"></path>
            <polygon id="Fill-65" points="66.324 325.266 166.379 425.125 157.395 434.121 57.336 334.262"></polygon>
            <path d="M259.859,566.883 C256.305,566.883 253.43,564.016 253.43,560.461 L253.43,237.355 C253.43,233.938 256.305,231.07 259.859,231.07 C263.414,231.07 266.285,233.938 266.285,237.355 L266.285,560.461 C266.285,563.879 263.414,566.883 259.859,566.883 Z" id="Fill-66"></path>
            <path d="M259.859,566.883 C256.305,566.883 253.43,564.016 253.43,560.461 L253.43,237.355 C253.43,233.938 256.305,231.07 259.859,231.07 C263.414,231.07 266.285,233.938 266.285,237.355 L266.285,560.461 C266.285,563.879 263.414,566.883 259.859,566.883 Z" id="Fill-67"></path>
        </g>
    </g>
</svg>
