<?xml version="1.0" encoding="UTF-8"?>
<svg class="logo-large" viewBox="0 0 1945 1946" version="1.1" xmlns="http://www.w3.org/2000/svg" xmlns:xlink="http://www.w3.org/1999/xlink">
    <!-- Generator: Sketch 58 (84663) - https://sketch.com -->
    <title>Large</title>
    <desc>Created with Sketch.</desc>
    <defs>
        <polygon id="path-1" points="0.848 0.496 131.947048 0.496 131.947048 136.051 0.848 136.051"></polygon>
        <polygon id="path-3" points="0.988 0.969 160.555 0.969 160.555 169.141 0.988 169.141"></polygon>
    </defs>
    <g id="Large" stroke="none" stroke-width="1" fill="none" fill-rule="evenodd">
        <circle id="Oval" fill="#FBF5F3" cx="973" cy="973" r="966"></circle>
        <g id="tree" transform="translate(719.000000, 714.000000)" fill="#731817">
            <path d="M242.629,21.953 C242.629,31.246 232.918,41.086 223.484,41.086 C211.859,41.086 202.148,31.246 202.148,21.953 C202.148,10.473 211.859,0.633 223.484,0.633 C232.918,0.496 242.629,10.336 242.629,21.953 Z" id="Fill-26"></path>
            <path d="M317.57,21.953 C317.57,31.246 308.133,41.086 298.285,41.086 C286.801,41.086 277.363,31.246 277.363,21.953 C277.363,10.473 286.664,0.633 298.285,0.633 C308.133,0.496 317.57,10.336 317.57,21.953 Z" id="Fill-27"></path>
            <path d="M402.355,50.52 C402.355,62.137 393.059,69.789 383.074,69.789 C371.312,69.789 362.016,62.137 362.016,50.52 C362.016,39.039 371.312,29.605 383.074,29.605 C393.059,29.605 402.355,38.902 402.355,50.52 Z" id="Fill-28"></path>
            <path d="M358.32,187.332 C358.32,198.812 348.477,208.242 336.715,208.242 C327.551,208.242 317.57,198.812 317.57,187.332 C317.57,177.492 327.414,168.062 336.715,168.062 C348.477,168.062 358.32,177.492 358.32,187.332 Z" id="Fill-29"></path>
            <path d="M402.355,281.367 C402.355,292.848 393.059,302.688 383.074,302.688 C371.312,302.688 362.016,292.848 362.016,281.367 C362.016,269.75 371.312,262.094 383.074,262.094 C393.059,262.094 402.355,269.887 402.355,281.367 Z" id="Fill-30"></path>
            <path d="M309.91,551.441 C306.355,551.441 303.484,548.707 303.484,545.152 L303.484,234.074 L219.105,149.473 C218.012,148.242 217.191,146.602 217.191,144.961 L217.191,21.953 C217.191,18.398 220.062,15.527 223.621,15.527 C227.039,15.527 229.91,18.398 229.91,21.953 L229.91,142.367 L314.422,226.969 C315.52,228.062 316.34,229.84 316.34,231.48 L316.34,545.152 C316.34,548.707 313.465,551.441 309.91,551.441 Z" id="Fill-31"></path>
            <polygon id="Fill-32" points="189.613 75.094 226.035 111.562 217.035 120.543 180.609 84.074"></polygon>
            <polygon id="Fill-33" points="314.422 284.238 305.398 275.215 376.781 203.871 376.781 54.344 389.637 54.344 389.637 209.199 387.449 211.113"></polygon>
            <path d="M358.32,79.492 C358.32,91.113 348.477,98.902 336.715,98.902 C327.551,98.902 317.57,91.113 317.57,79.492 C317.57,68.148 327.414,60.359 336.715,60.359 C348.477,60.359 358.32,68.012 358.32,79.492 Z" id="Fill-34"></path>
            <path d="M446.664,202.641 C446.664,212.07 437.09,221.91 425.332,221.91 C416.031,221.91 406.184,212.07 406.184,202.641 C406.184,191.16 416.031,181.32 425.469,181.32 C437.09,181.32 446.664,191.16 446.664,202.641 Z" id="Fill-35"></path>
            <polygon id="Fill-36" points="447.758 280.41 418.902 251.57 418.902 206.605 431.758 206.605 431.758 246.238 456.922 271.391"></polygon>
            <path d="M427.52,108.195 C427.52,119.676 435.312,127.469 446.801,127.469 C458.562,127.469 467.859,119.812 467.859,108.195 C467.859,96.578 458.562,87.148 446.801,87.148 C435.176,87.285 427.52,96.578 427.52,108.195 Z" id="Fill-37"></path>
            <polygon id="Fill-38" points="438.59 109.777 447.379 118.961 385.621 178.004 376.828 168.82"></polygon>
            <polygon id="Fill-39" points="336.418 73.172 345.738 82.02 304.586 125.328 295.266 116.48"></polygon>
            <polygon id="Fill-40" points="257.508 81.367 266.766 90.086 225.773 133.551 216.52 124.832"></polygon>
            <polygon id="Fill-41" points="185.137 175.516 194.457 184.363 153.305 227.672 143.984 218.824"></polygon>
            <polygon id="Fill-42" points="373.289 216.512 364.402 225.797 321.422 184.695 330.309 175.41"></polygon>
            <path d="M481.398,219.863 C481.398,231.344 490.699,241.184 500.68,241.184 C512.441,241.184 521.742,231.344 521.742,219.863 C521.742,208.379 512.441,200.59 500.68,200.59 C490.836,200.59 481.398,208.242 481.398,219.863 Z" id="Fill-43"></path>
            <path d="M359.961,530.117 C356.543,530.117 353.535,527.113 353.535,523.559 L353.535,364.328 C353.535,362.551 354.355,361.051 355.723,359.82 L492.477,221.227 C494.938,218.633 498.902,218.633 501.227,221.227 C503.965,223.688 503.965,227.789 501.227,230.25 L366.391,366.926 L366.391,523.559 C366.391,527.113 363.656,530.117 359.961,530.117 Z" id="Fill-44"></path>
            <polygon id="Fill-45" points="378.758 276.934 387.816 286.051 314.441 358.844 305.387 349.727"></polygon>
            <path d="M479.348,329.613 C479.348,339.043 471.555,348.883 460.066,348.883 C448.578,348.883 439.004,339.043 439.004,329.613 C439.004,318.133 448.578,308.43 460.066,308.43 C471.555,308.43 479.348,318.133 479.348,329.613 Z" id="Fill-46"></path>
            <polygon id="Fill-47" points="454.699 324.258 463.762 333.18 363.66 434.723 354.602 425.801"></polygon>
            <path d="M119.551,50.52 C119.551,62.137 128.984,69.789 138.832,69.789 C150.32,69.789 159.754,62.137 159.754,50.52 C159.754,39.039 150.457,29.605 138.832,29.605 C128.984,29.605 119.551,38.902 119.551,50.52 Z" id="Fill-48"></path>
            <path d="M163.723,187.332 C163.723,198.812 173.566,208.242 182.867,208.242 C194.492,208.242 204.336,198.812 204.336,187.332 C204.336,177.492 194.492,168.062 182.867,168.062 C173.43,168.062 163.723,177.492 163.723,187.332 Z" id="Fill-49"></path>
            <path d="M119.551,281.367 C119.551,292.848 127.207,302.688 138.832,302.688 C150.457,302.688 159.754,292.848 159.754,281.367 C159.754,269.75 150.457,262.094 138.832,262.094 C127.207,262.094 119.551,269.887 119.551,281.367 Z" id="Fill-50"></path>
            <path d="M211.859,551.441 C208.441,551.441 205.566,548.707 205.566,545.152 L205.566,231.344 C205.566,229.703 206.25,228.062 207.484,226.832 L291.996,142.23 L291.996,21.953 C291.996,18.398 295.004,15.527 298.422,15.527 C301.98,15.527 304.852,18.398 304.852,21.953 L304.852,145.098 C304.852,146.738 304.168,148.379 302.938,149.609 L218.285,234.074 L218.285,545.152 C218.285,548.707 215.414,551.441 211.859,551.441 Z" id="Fill-51"></path>
            <polygon id="Fill-52" points="207.348 284.238 132.406 209.199 132.406 54.344 145.125 54.344 145.125 203.871 216.371 275.215"></polygon>
            <path d="M163.723,79.492 C163.723,91.113 173.566,98.902 182.867,98.902 C194.492,98.902 204.336,91.113 204.336,79.492 C204.336,68.148 194.492,60.359 182.867,60.359 C173.43,60.359 163.723,68.012 163.723,79.492 Z" id="Fill-53"></path>
            <path d="M75.105,202.641 C75.105,212.07 84.816,221.91 94.25,221.91 C105.738,221.91 115.586,212.07 115.586,202.641 C115.586,191.16 105.738,181.32 94.25,181.32 C84.816,181.32 75.105,191.16 75.105,202.641 Z" id="Fill-54"></path>
            <polygon id="Fill-55" points="71.961 280.41 62.934 271.391 87.961 246.238 87.961 206.605 100.68 206.605 100.68 251.57"></polygon>
            <path d="M238.938,91.113 C238.938,102.594 248.234,110.383 259.859,110.383 C271.211,110.383 279.004,102.594 279.004,91.113 C279.004,79.492 271.211,69.789 259.859,69.789 C248.234,69.789 238.938,79.492 238.938,91.113 Z" id="Fill-56"></path>
            <path d="M238.938,241.184 C238.938,250.477 248.234,260.453 259.859,260.453 C271.211,260.453 279.004,250.477 279.004,241.184 C279.004,229.703 271.211,219.863 259.859,219.863 C248.234,219.863 238.938,229.703 238.938,241.184 Z" id="Fill-57"></path>
            <path d="M238.938,398.91 C238.938,410.391 248.234,419.82 259.859,419.82 C271.211,419.82 279.004,410.391 279.004,398.91 C279.004,387.426 271.348,379.773 259.859,379.773 C248.234,379.773 238.938,387.426 238.938,398.91 Z" id="Fill-58"></path>
            <path d="M94.25,108.195 C94.25,119.676 84.816,127.469 75.105,127.469 C63.48,127.469 54.047,119.812 54.047,108.195 C54.047,96.578 63.48,87.148 75.105,87.148 C84.816,87.285 94.25,96.578 94.25,108.195 Z" id="Fill-59"></path>
            <polygon id="Fill-60" points="83.504 109.77 143.371 169.195 134.41 178.215 74.543 118.785"></polygon>
            <path d="M40.371,219.863 C40.371,231.344 31.07,241.184 19.445,241.184 C9.602,241.184 0.164,231.344 0.164,219.863 C0.164,208.379 9.602,200.59 19.445,200.59 C30.934,200.59 40.371,208.242 40.371,219.863 Z" id="Fill-61"></path>
            <path d="M161.945,530.117 C158.387,530.117 155.652,527.113 155.652,523.559 L155.652,366.926 L20.539,230.25 C18.078,227.789 18.078,223.688 20.539,221.227 C23.004,218.77 26.969,218.77 29.566,221.227 L166.457,359.82 C167.551,361.051 168.371,362.688 168.371,364.328 L168.371,523.559 C168.371,527.113 165.363,530.117 161.945,530.117 Z" id="Fill-62"></path>
            <polygon id="Fill-63" points="143.434 276.918 216.516 349.82 207.434 358.914 134.352 286.008"></polygon>
            <path d="M42.559,329.613 C42.559,339.043 50.352,348.883 61.84,348.883 C73.465,348.883 81.121,339.043 81.121,329.613 C81.121,318.133 73.465,308.43 61.84,308.43 C50.352,308.43 42.559,318.133 42.559,329.613 Z" id="Fill-64"></path>
            <polygon id="Fill-65" points="66.324 325.266 166.379 425.125 157.395 434.121 57.336 334.262"></polygon>
            <path d="M259.859,566.883 C256.305,566.883 253.43,564.016 253.43,560.461 L253.43,237.355 C253.43,233.938 256.305,231.07 259.859,231.07 C263.414,231.07 266.285,233.938 266.285,237.355 L266.285,560.461 C266.285,563.879 263.414,566.883 259.859,566.883 Z" id="Fill-66"></path>
            <path d="M259.859,566.883 C256.305,566.883 253.43,564.016 253.43,560.461 L253.43,237.355 C253.43,233.938 256.305,231.07 259.859,231.07 C263.414,231.07 266.285,233.938 266.285,237.355 L266.285,560.461 C266.285,563.879 263.414,566.883 259.859,566.883 Z" id="Fill-67"></path>
        </g>
        <g id="outer" transform="translate(7.140092, 7.848000)" stroke="#721817">
            <path d="M119.407029,760.968 C136.110194,766.371 154.273286,764.914 169.902504,756.922 C185.531723,748.929 197.348132,735.054 202.749862,718.351 C272.824358,502.14 431.394429,325.847 638.996049,233.351 C846.597668,140.859 1083.70681,140.859 1291.30843,233.351 C1498.91005,325.847 1657.48412,502.14 1727.55862,718.351 C1738.81605,753.132 1776.13619,772.207 1810.91745,760.949 C1845.69871,749.695 1864.77376,712.371 1853.51532,677.586 C1771.8904,425.629 1587.12464,220.187 1345.21474,112.394 C1103.30483,4.601 827.003648,4.601 585.093744,112.394 C343.18384,220.187 158.418079,425.629 76.7891604,677.586 C71.3794309,694.293 72.8283584,712.468 80.8209588,728.109 C88.8125592,743.746 102.695865,755.566 119.407029,760.968 Z M1767.8396,693.472 C1768.13659,691.988 1768.58557,690.543 1769.17954,689.148 C1769.75351,687.746 1770.46447,686.402 1771.30443,685.136 C1772.16739,683.914 1773.13234,682.765 1774.18729,681.703 C1775.24223,680.64 1776.39018,679.675 1777.61711,678.82 C1778.89005,677.996 1780.23398,677.281 1781.63291,676.695 C1783.03084,676.125 1784.48077,675.675 1785.9567,675.355 C1793.54632,673.871 1801.38293,676.234 1806.88665,681.668 C1807.9496,682.722 1808.91355,683.871 1809.76951,685.101 C1811.42942,687.64 1812.59337,690.468 1813.19934,693.437 C1814.54327,700.238 1812.77336,707.285 1808.37858,712.644 C1803.9808,718.004 1797.41812,721.117 1790.48447,721.129 C1788.96455,721.117 1787.44862,720.957 1785.9567,720.648 C1784.48077,720.328 1783.03084,719.882 1781.63291,719.312 C1780.22598,718.722 1778.88305,718 1777.61711,717.148 C1776.37518,716.316 1775.22223,715.347 1774.18729,714.265 C1768.69556,708.812 1766.32068,700.953 1767.8746,693.371 L1767.8396,693.472 Z M1712.42537,524.035 C1720.62096,519.449 1730.76946,520.257 1738.13309,526.078 C1745.49972,531.902 1748.62856,541.59 1746.06269,550.621 C1743.49582,559.652 1735.73821,566.242 1726.40968,567.32 C1717.08214,568.394 1708.02759,563.742 1703.47282,555.535 C1697.25013,544.363 1701.25793,530.261 1712.42537,524.035 Z M1613.64431,388.738 C1620.80496,382.695 1630.89845,381.566 1639.21903,385.871 C1647.53862,390.179 1652.44537,399.074 1651.65241,408.406 C1650.85545,417.742 1644.51577,425.679 1635.58622,428.515 C1626.65966,431.355 1616.90215,428.531 1610.86345,421.367 C1602.62486,411.59 1603.8668,396.98 1613.64431,388.738 Z M1490.67146,274.746 C1496.56617,267.472 1506.26568,264.464 1515.24223,267.125 C1524.22279,269.789 1530.71446,277.593 1531.69541,286.91 C1532.67536,296.222 1527.9496,305.211 1519.72301,309.683 C1511.49642,314.156 1501.38293,313.234 1494.10129,307.343 C1484.12479,299.281 1482.57387,284.656 1490.63646,274.679 L1490.67146,274.746 Z M1348.17559,186.289 C1352.54737,177.984 1361.48792,173.132 1370.82846,173.996 C1380.17199,174.859 1388.07459,181.265 1390.85145,190.226 C1393.62932,199.187 1390.73446,208.941 1383.51982,214.937 C1376.30118,220.933 1366.18369,221.988 1357.8831,217.617 C1352.43737,214.754 1348.35158,209.843 1346.53167,203.964 C1344.70676,198.09 1345.30073,191.726 1348.17559,186.289 Z M1191.37143,127.164 C1194.06229,118.211 1201.8789,111.761 1211.17944,110.816 C1220.48097,109.871 1229.43353,114.617 1233.8713,122.847 C1238.30908,131.074 1237.35513,141.168 1231.45742,148.418 C1225.55872,155.672 1215.8712,158.66 1206.91365,155.988 C1194.68726,152.336 1187.73061,139.464 1191.37143,127.234 L1191.37143,127.164 Z M1026.05469,99.507 C1026.93765,90.386 1033.11734,82.644 1041.81691,79.757 C1050.51147,76.871 1060.09399,79.382 1066.25368,86.168 C1072.41438,92.953 1073.9963,102.734 1070.28948,111.113 C1066.57867,119.492 1058.27708,124.898 1049.11354,124.902 C1048.37158,124.949 1047.62462,124.949 1046.88265,124.902 C1040.76196,124.312 1035.12524,121.308 1031.21844,116.558 C1027.31263,111.808 1025.45372,105.699 1026.05469,99.578 L1026.05469,99.507 Z M879.375029,78.679 C885.488723,78.093 891.586418,79.961 896.328181,83.871 C901.066944,87.777 904.058795,93.41 904.644766,99.527 C905.230736,105.64 903.366829,111.738 899.457025,116.48 C895.54722,121.218 889.914502,124.211 883.800808,124.797 C883.046845,124.797 882.323882,124.797 881.534921,124.797 C868.988548,125.058 858.516072,115.277 857.922102,102.738 C857.328131,90.203 866.824657,79.472 879.340031,78.543 L879.375029,78.679 Z M710.457475,111.586 C719.438026,108.906 729.144541,111.902 735.055245,119.172 C740.96495,126.445 741.909903,136.562 737.453126,144.804 C732.992349,153.047 724.007798,157.789 714.687264,156.82 C705.36773,155.847 697.547121,149.359 694.879254,140.375 C691.238436,128.144 698.17209,115.273 710.390479,111.586 L710.457475,111.586 Z M551.113443,176.578 C556.57417,173.714 562.949851,173.14 568.832557,174.976 C574.719263,176.812 579.629017,180.914 582.492874,186.375 C585.355731,191.832 585.929702,198.207 584.093794,204.093 C582.257886,209.976 578.156091,214.89 572.695364,217.754 C567.246636,220.804 560.796959,221.531 554.805258,219.757 C548.816558,217.984 543.796809,213.871 540.882955,208.343 C537.9731,202.816 537.418128,196.347 539.344031,190.406 C541.269935,184.461 545.515723,179.55 551.113443,176.781 L551.113443,176.578 Z M407.281635,271.043 C414.563271,265.144 424.675765,264.214 432.910353,268.687 C441.144942,273.156 445.871705,282.148 444.890754,291.468 C443.906804,300.785 437.410128,308.593 428.425578,311.25 C419.442027,313.906 409.742512,310.89 403.847807,303.605 C395.809209,293.664 397.344132,279.09 407.281635,271.043 Z M284.273786,391.136 C290.308484,383.972 300.066996,381.152 308.996549,383.988 C317.926103,386.828 324.265786,394.765 325.058746,404.097 C325.855706,413.433 320.949952,422.328 312.629368,426.632 C304.308784,430.941 294.215289,429.808 287.050647,423.769 C277.332133,415.543 276.074196,401.015 284.238787,391.242 L284.273786,391.136 Z M186.519674,532.851 C191.086445,524.675 200.124993,520.054 209.426528,521.144 C218.727063,522.23 226.461676,528.812 229.015549,537.82 C231.574421,546.828 228.457577,556.492 221.117944,562.304 C213.777311,568.121 203.656817,568.941 195.473226,564.386 C184.300785,558.144 180.292985,544.035 186.519674,532.851 Z M123.417829,681.668 C124.472776,680.605 125.621719,679.64 126.851657,678.789 C128.125593,677.961 129.469526,677.25 130.867456,676.66 C132.262387,676.086 133.711314,675.636 135.18824,675.32 C141.60192,674.043 148.254587,675.535 153.504324,679.429 C158.758062,683.324 162.117894,689.254 162.761862,695.761 C163.402829,702.265 161.265936,708.742 156.875156,713.586 C152.488375,718.433 146.254687,721.195 139.719014,721.199 C138.19609,721.199 136.680166,721.05 135.18824,720.754 C133.711314,720.437 132.262387,719.988 130.867456,719.414 C129.461527,718.828 128.113594,718.101 126.851657,717.254 C125.605719,716.418 124.457777,715.453 123.417829,714.371 C119.071046,710.027 116.629168,704.132 116.629168,697.984 C116.629168,691.84 119.071046,685.945 123.417829,681.601 L123.417829,681.668 Z" id="Stroke-2" stroke-width="6.862673"></path>
            <path d="M76.7891604,1252.507 C158.418079,1504.461 343.18384,1709.906 585.093744,1817.699 C827.003648,1925.488 1103.30483,1925.488 1345.21474,1817.699 C1587.12464,1709.906 1771.8904,1504.461 1853.51532,1252.507 C1864.77376,1217.722 1845.69871,1180.398 1810.91745,1169.14 C1776.13619,1157.886 1738.81605,1176.957 1727.55862,1211.742 C1657.48412,1427.953 1498.91005,1604.246 1291.30843,1696.742 C1083.70681,1789.234 846.597668,1789.234 638.996049,1696.742 C431.394429,1604.246 272.824358,1427.953 202.749862,1211.742 C191.492425,1176.957 154.172291,1157.886 119.38703,1169.14 C84.6057695,1180.398 65.535723,1217.722 76.7891604,1252.507 Z M1767.35963,1232.16 C1767.39863,1226.011 1769.8635,1220.129 1774.22228,1215.793 C1775.25723,1214.711 1776.41018,1213.742 1777.65211,1212.91 C1778.91805,1212.058 1780.26198,1211.336 1781.66791,1210.746 C1783.06584,1210.175 1784.51577,1209.73 1785.9917,1209.41 C1787.48062,1209.101 1788.99955,1208.941 1790.51947,1208.92883 C1797.46512,1208.902 1804.05479,1212.004 1808.45657,1217.375 C1812.86335,1222.746 1814.61726,1229.812 1813.23433,1236.621 C1812.62836,1239.59 1811.46442,1242.418 1809.80451,1244.957 C1808.94955,1246.187 1807.9846,1247.336 1806.92165,1248.39 C1801.41792,1253.824 1793.58232,1256.187 1785.9917,1254.703 C1784.55077,1254.398 1783.14084,1253.976 1781.76991,1253.433 C1780.37098,1252.843 1779.02704,1252.132 1777.75811,1251.304 C1776.52717,1250.449 1775.37923,1249.488 1774.32428,1248.422 C1773.26933,1247.363 1772.30438,1246.214 1771.44142,1244.992 C1770.60547,1243.726 1769.8905,1242.382 1769.31653,1240.976 C1768.72256,1239.586 1768.27358,1238.136 1767.9766,1236.652 C1767.62061,1235.168 1767.41362,1233.652 1767.35963,1232.125 L1767.35963,1232.16 Z M1703.43782,1374.558 C1707.9956,1366.375 1717.03514,1361.742 1726.34368,1362.824 C1735.64821,1363.902 1743.38683,1370.484 1745.9487,1379.496 C1748.51157,1388.507 1745.39073,1398.175 1738.04709,1403.988 C1730.69946,1409.804 1720.57397,1410.621 1712.39438,1406.058 C1701.22293,1399.832 1697.21514,1385.73 1703.43782,1374.558 Z M1610.79646,1508.793 C1616.83215,1501.629 1626.58967,1498.808 1635.51922,1501.644 C1644.44877,1504.48 1650.78946,1512.418 1651.58242,1521.754 C1652.37838,1531.09 1647.47262,1539.984 1639.15204,1544.289 C1630.83245,1548.593 1620.73796,1547.464 1613.57432,1541.425 C1608.84355,1537.488 1605.8907,1531.816 1605.37473,1525.683 C1604.85975,1519.55 1606.82465,1513.464 1610.83245,1508.793 L1610.79646,1508.793 Z M1494.13629,1622.816 C1501.41793,1616.929 1511.53142,1616.007 1519.75801,1620.48 C1527.9846,1624.953 1532.71136,1633.941 1531.73041,1643.254 C1530.75046,1652.566 1524.25778,1660.375 1515.27723,1663.035 C1506.30068,1665.695 1496.60117,1662.687 1490.70346,1655.414 C1486.79266,1650.652 1484.95675,1644.519 1485.60972,1638.39 C1486.25768,1632.261 1489.34353,1626.648 1494.17229,1622.816 L1494.13629,1622.816 Z M1357.8511,1712.41 C1366.14069,1708.054 1376.23418,1709.121 1383.42983,1715.109 C1390.62547,1721.097 1393.51132,1730.828 1390.73846,1739.773 C1387.9686,1748.714 1380.08599,1755.109 1370.76146,1755.976 C1361.44092,1756.843 1352.51537,1752.015 1348.14059,1743.738 C1345.23074,1738.304 1344.62477,1731.933 1346.45667,1726.047 C1348.28858,1720.164 1352.40638,1715.261 1357.8831,1712.441 L1357.8511,1712.41 Z M1206.87865,1774.172 C1215.8512,1771.484 1225.56272,1774.468 1231.48042,1781.73 C1237.39813,1788.996 1238.35508,1799.109 1233.9103,1807.355 C1229.46452,1815.601 1220.48797,1820.355 1211.16844,1819.402 C1201.8479,1818.445 1194.0193,1811.972 1191.33643,1802.996 C1189.51552,1797.09 1190.14049,1790.699 1193.06634,1785.257 C1195.9962,1779.816 1200.98395,1775.773 1206.91365,1774.035 L1206.87865,1774.172 Z M1046.84766,1805.433 C1047.59362,1805.382 1048.33558,1805.382 1049.07854,1805.433 C1061.78891,1806.039 1071.69541,1816.675 1071.39443,1829.398 C1071.08944,1842.121 1060.69196,1852.277 1047.9646,1852.277 C1035.23824,1852.277 1024.83976,1842.121 1024.53477,1829.398 C1024.23479,1816.675 1034.13729,1806.039 1046.84766,1805.433 Z M858.445076,1826.328 C859.590018,1814.457 869.539521,1805.379 881.468924,1805.328 C882.222887,1805.328 882.941851,1805.328 883.730811,1805.328 C893.051345,1806.23 900.913952,1812.656 903.648815,1821.613 C906.386678,1830.566 903.460825,1840.289 896.238186,1846.25 C889.015547,1852.207 878.914052,1853.23 870.644466,1848.843 C862.370879,1844.453 857.55912,1835.515 858.445076,1826.191 L858.445076,1826.328 Z M694.777259,1789.886 C697.445126,1780.906 705.261735,1774.414 714.582269,1773.445 C723.902803,1772.476 732.890354,1777.218 737.348131,1785.461 C741.808908,1793.703 740.863955,1803.82 734.953251,1811.09 C729.043546,1818.363 719.332032,1821.355 710.35548,1818.675 C704.453776,1816.902 699.496023,1812.851 696.582169,1807.418 C693.668315,1801.988 693.031347,1795.617 694.812258,1789.714 L694.777259,1789.886 Z M541.300934,1722.429 C544.160791,1716.98 549.074545,1712.894 554.949251,1711.074 C560.827957,1709.25 567.187639,1709.843 572.629367,1712.718 C580.906953,1717.086 585.742711,1726.007 584.882754,1735.328 C584.023797,1744.652 577.637117,1752.539 568.699564,1755.32 C559.762011,1758.101 550.027497,1755.226 544.035797,1748.035 C538.039097,1740.847 536.961151,1730.757 541.300934,1722.461 L541.300934,1722.429 Z M403.710813,1626.66 C409.601519,1619.375 419.305034,1616.355 428.289584,1619.015 C437.274135,1621.672 443.76981,1629.48 444.753761,1638.797 C445.734712,1648.113 441.007949,1657.105 432.77336,1661.578 C424.539772,1666.05 414.422278,1665.121 407.144642,1659.222 C402.312883,1655.367 399.231037,1649.734 398.594069,1643.586 C397.953101,1637.437 399.813008,1631.289 403.746812,1626.523 L403.710813,1626.66 Z M287.050647,1506.39 C294.215289,1500.351 304.308784,1499.222 312.629368,1503.527 C320.949952,1507.832 325.855706,1516.726 325.058746,1526.062 C324.265786,1535.398 317.926103,1543.336 308.996549,1546.172 C300.066996,1549.007 290.308484,1546.187 284.273786,1539.023 C280.202989,1534.343 278.199089,1528.218 278.715064,1522.043 C279.235038,1515.863 282.226888,1510.156 287.019648,1506.218 L287.050647,1506.39 Z M195.508224,1365.945 C203.703814,1361.371 213.844307,1362.183 221.206939,1368.004 C228.566571,1373.824 231.695415,1383.507 229.133543,1392.535 C226.566671,1401.562 218.817059,1408.156 209.496525,1409.238 C200.171991,1410.32 191.117444,1405.679 186.554672,1397.48 C183.476826,1392.105 182.691865,1385.718 184.367781,1379.757 C186.047697,1373.797 190.047497,1368.757 195.473226,1365.773 L195.508224,1365.945 Z M116.59017,1232.125 C116.629168,1225.976 119.098045,1220.093 123.453827,1215.757 C124.488775,1214.675 125.640718,1213.707 126.886655,1212.875 C128.148592,1212.023 129.492525,1211.3 130.898455,1210.714 C132.297385,1210.136 133.746312,1209.691 135.223239,1209.375 C142.820859,1207.886 150.660467,1210.265 156.152192,1215.722 C163.367831,1222.941 165.007749,1234.031 160.18799,1243.031 C155.371231,1252.027 145.230738,1256.808 135.223239,1254.804 C133.746312,1254.492 132.297385,1254.043 130.898455,1253.468 C129.500525,1252.879 128.156592,1252.168 126.886655,1251.34 C125.656717,1250.484 124.507774,1249.519 123.453827,1248.457 C119.110044,1244.113 116.645167,1238.234 116.59017,1232.09 L116.59017,1232.125 Z" id="Stroke-3" stroke-width="6.862673"></path>
            <path d="M97.8241086,877.085991 C62.1838907,877.07 30.0434978,898.531 16.3951802,931.457 C2.74686265,964.382 10.2734863,1002.289 35.4732263,1027.496 C60.6679664,1052.703 98.5710712,1060.25 131.500425,1046.613 C164.429778,1032.976 185.902704,1000.843 185.902704,965.199 C185.902704,916.547 146.472676,877.101 97.8241086,877.085991 Z M97.8241086,1007.851 C80.5749711,1007.851 65.0237487,997.461 58.4220787,981.523 C51.8204089,965.586 55.4692264,947.238 67.6646166,935.043 C79.8640066,922.843 98.2070894,919.195 114.145292,925.797 C130.082496,932.398 140.472976,947.949 140.472976,965.199 C140.472976,976.511 135.981201,987.363 127.980601,995.359 C119.985,1003.359 109.133543,1007.851 97.8241086,1007.851 Z" id="Stroke-4" stroke-width="6.862673"></path>
            <path d="M36.6801659,846.132 C27.4376281,846.132 19.1060447,851.703 15.5672216,860.242 C12.0313984,868.781 13.9843008,878.609 20.519974,885.144 C27.058647,891.679 36.8871556,893.636 45.4257286,890.097 C53.9653016,886.562 59.5320233,878.23 59.5320233,868.984 C59.5320233,862.925 57.1251436,857.113 52.8403579,852.828 C48.5545722,848.543 42.7428628,846.132 36.6801659,846.132 Z M36.6801659,880.035 C32.2113893,880.035 28.1835908,877.343 26.4726763,873.214 C24.7617619,869.086 25.7077145,864.332 28.8675566,861.172 C32.0273986,858.011 36.7811609,857.066 40.9069546,858.777 C45.0357481,860.488 47.7266136,864.515 47.7266136,868.984 C47.7266136,871.918 46.5626718,874.726 44.4927753,876.8 C42.4218788,878.871 39.6100194,880.035 36.6801659,880.035 Z" id="Stroke-5" stroke-width="6.862673"></path>
            <path d="M172.074396,859.035 C162.832858,859.035 154.500275,864.601 150.961452,873.144 C147.425628,881.683 149.379531,891.511 155.914204,898.047 C162.449877,904.582 172.281386,906.539 180.820959,903 C189.359532,899.464 194.926253,891.132 194.926253,881.886 C194.926253,875.828 192.519374,870.015 188.230588,865.73 C183.945802,861.441 178.133093,859.035 172.074396,859.035 Z M172.074396,892.937 C167.605619,892.937 163.578821,890.246 161.867906,886.117 C160.156992,881.988 161.101945,877.234 164.261787,874.074 C167.422628,870.914 172.172391,869.968 176.301185,871.679 C180.429978,873.39 183.121843,877.418 183.121843,881.886 C183.121843,887.988 178.176091,892.937 172.074396,892.937 Z" id="Stroke-6" stroke-width="6.862673"></path>
            <path d="M36.6801659,1037.672 C27.4376281,1037.672 19.1060447,1043.238 15.5672216,1051.777 C12.0313984,1060.316 13.9843008,1070.148 20.519974,1076.683 C27.058647,1083.218 36.8871556,1085.172 45.4257286,1081.636 C53.9653016,1078.097 59.5320233,1069.765 59.5320233,1060.523 C59.5320233,1047.902 49.3015348,1037.672 36.6801659,1037.672 Z M36.6801659,1071.574 C32.2113893,1071.574 28.1835908,1068.879 26.4726763,1064.75 C24.7617619,1060.621 25.7077145,1055.871 28.8675566,1052.711 C32.0273986,1049.55 36.7811609,1048.605 40.9069546,1050.316 C45.0357481,1052.027 47.7266136,1056.054 47.7266136,1060.523 C47.7266136,1063.453 46.5626718,1066.265 44.4927753,1068.336 C42.4218788,1070.41 39.6100194,1071.574 36.6801659,1071.574 Z" id="Stroke-7" stroke-width="6.862673"></path>
            <path d="M172.074396,1027.683 C162.832858,1027.683 154.500275,1033.254 150.961452,1041.793 C147.425628,1050.332 149.379531,1060.16 155.914204,1066.699 C162.449877,1073.234 172.281386,1075.187 180.820959,1071.652 C189.359532,1068.113 194.926253,1059.781 194.926253,1050.539 C194.926253,1044.476 192.519374,1038.664 188.230588,1034.379 C183.945802,1030.093 178.133093,1027.683 172.074396,1027.683 Z M172.074396,1061.586 C167.605619,1061.586 163.578821,1058.894 161.867906,1054.765 C160.156992,1050.636 161.101945,1045.886 164.261787,1042.726 C167.422628,1039.566 172.172391,1038.621 176.301185,1040.332 C180.429978,1042.039 183.121843,1046.07 183.121843,1050.539 C183.121843,1056.64 178.176091,1061.586 172.074396,1061.586 Z" id="Stroke-8" stroke-width="6.862673"></path>
            <path d="M1930.30448,965.199 C1930.30448,1221.187 1828.62056,1466.691 1647.62061,1647.699 C1466.61767,1828.711 1221.12894,1930.402 965.15274,1930.402 C709.179539,1930.402 463.687814,1828.711 282.687865,1647.699 C101.687915,1466.691 1.13686838e-13,1221.187 1.13686838e-13,965.199 C1.13686838e-13,709.214 101.687915,463.711 282.687865,282.699 C463.687814,101.691 709.179539,0 965.15274,0 C1221.12894,0 1466.61767,101.691 1647.62061,282.699 C1828.62056,463.711 1930.30448,709.214 1930.30448,965.199 Z" id="Stroke-9" stroke-width="13.725345"></path>
            <path d="M1732.05439,965.199 C1732.05439,1168.605 1651.25343,1363.679 1507.43362,1507.507 C1363.61282,1651.336 1168.54657,1732.14 965.15274,1732.14 C761.75791,1732.14 566.695664,1651.336 422.874855,1507.507 C279.051047,1363.679 198.254087,1168.605 198.254087,965.199 C198.254087,761.797 279.051047,566.722 422.874855,422.894 C566.695664,279.066 761.75791,198.261 965.15274,198.261 C1168.54657,198.261 1363.61282,279.066 1507.43362,422.894 C1651.25343,566.722 1732.05439,761.797 1732.05439,965.199 Z" id="Stroke-10" stroke-width="13.725345"></path>
            <path d="M68.5195738,880.617 L117.656117,796.277 L138.551072,884.703 C138.551072,884.703 128.496575,876.605 103.929803,875.058 C81.4569269,873.617 68.5195738,880.617 68.5195738,880.617 Z" id="Stroke-11" stroke-width="6.862673"></path>
            <path d="M66.9106543,1050.16 L116.145192,1134.504 L137.043148,1046.078 C137.043148,1046.078 126.98865,1054.175 102.421879,1055.718 C79.9140041,1057.195 66.9106543,1050.16 66.9106543,1050.16 Z" id="Stroke-12" stroke-width="6.862673"></path>
            <path d="M1742.96485,965.199 C1742.96485,1000.84 1764.43377,1032.972 1797.35913,1046.609 C1830.28148,1060.25 1868.17959,1052.711 1893.38233,1027.507 C1918.58207,1002.308 1926.12069,964.406 1912.48037,931.48 C1898.84405,898.554 1866.71466,877.086 1831.07844,877.086 C1807.70661,877.086 1785.29673,886.367 1768.77356,902.894 C1752.24638,919.418 1742.96485,941.832 1742.96485,965.199 Z M1788.39458,965.199 C1788.39458,947.949 1798.78506,932.398 1814.72226,925.797 C1830.65646,919.195 1849.00355,922.843 1861.19894,935.043 C1873.39833,947.238 1877.04714,965.586 1870.44547,981.523 C1863.8438,997.461 1848.29258,1007.851 1831.04244,1007.851 C1819.73001,1007.851 1808.88255,1003.359 1800.88295,995.359 C1792.88635,987.363 1788.39458,976.511 1788.39458,965.199 Z" id="Stroke-13" stroke-width="6.862673"></path>
            <path d="M1869.36753,869.125 C1869.36753,878.367 1874.93725,886.699 1883.47682,890.238 C1892.01539,893.773 1901.8439,891.82 1908.37858,885.281 C1914.91425,878.746 1916.86715,868.918 1913.33233,860.379 C1909.79651,851.84 1901.46092,846.269 1892.21838,846.269 C1886.15969,846.269 1880.34798,848.679 1876.06219,852.964 C1871.77741,857.25 1869.36753,863.062 1869.36753,869.125 Z M1881.13694,869.125 C1881.13694,864.656 1883.8278,860.625 1887.9566,858.914 C1892.08539,857.207 1896.84015,858.152 1900,861.312 C1903.15584,864.468 1904.10179,869.222 1902.39488,873.351 C1900.68396,877.48 1896.65616,880.172 1892.18739,880.172 C1886.13669,880.097 1881.27293,875.172 1881.27293,869.125 L1881.13694,869.125 Z" id="Stroke-14" stroke-width="6.862673"></path>
            <path d="M1733.9413,881.855 C1733.9413,891.097 1739.50802,899.429 1748.04659,902.968 C1756.58617,906.504 1766.41367,904.55 1772.94935,898.011 C1779.48402,891.476 1781.44092,881.648 1777.9021,873.109 C1774.36728,864.57 1766.03469,859 1756.79316,859 C1750.73046,859 1744.91775,861.41 1740.63296,865.695 C1736.34718,869.98 1733.9413,875.793 1733.9413,881.855 Z M1745.71071,881.855 C1745.71071,877.386 1748.40258,873.355 1752.53137,871.644 C1756.65616,869.937 1761.40993,870.882 1764.56977,874.039 C1767.73061,877.199 1768.67556,881.953 1766.96465,886.082 C1765.25373,890.211 1761.22693,892.902 1756.75816,892.902 C1750.66746,892.882 1745.74171,887.941 1745.74171,881.855 L1745.71071,881.855 Z" id="Stroke-15" stroke-width="6.862673"></path>
            <path d="M1869.36753,1060.523 C1869.36753,1069.765 1874.93725,1078.097 1883.47682,1081.636 C1892.01539,1085.172 1901.8439,1083.218 1908.37858,1076.683 C1914.91425,1070.148 1916.86715,1060.316 1913.33233,1051.777 C1909.79651,1043.238 1901.46092,1037.672 1892.21838,1037.672 C1886.15969,1037.672 1880.34798,1040.078 1876.06219,1044.363 C1871.77741,1048.648 1869.36753,1054.461 1869.36753,1060.523 Z M1881.13694,1060.523 C1881.13694,1056.054 1883.8278,1052.027 1887.9566,1050.316 C1892.08539,1048.605 1896.84015,1049.55 1900,1052.711 C1903.15584,1055.871 1904.10179,1060.621 1902.39488,1064.75 C1900.68396,1068.879 1896.65616,1071.574 1892.18739,1071.574 C1886.13669,1071.496 1881.27293,1066.574 1881.27293,1060.523 L1881.13694,1060.523 Z" id="Stroke-16" stroke-width="6.862673"></path>
            <path d="M1733.9413,1050.539 C1733.9413,1059.781 1739.50802,1068.113 1748.04659,1071.652 C1756.58617,1075.187 1766.41367,1073.234 1772.94935,1066.699 C1779.48402,1060.16 1781.44092,1050.332 1777.9021,1041.793 C1774.36728,1033.254 1766.03469,1027.683 1756.79316,1027.683 C1750.73046,1027.683 1744.91775,1030.093 1740.63296,1034.379 C1736.34718,1038.664 1733.9413,1044.476 1733.9413,1050.539 Z M1745.71071,1050.539 C1745.71071,1046.07 1748.40258,1042.039 1752.53137,1040.332 C1756.65616,1038.621 1761.40993,1039.566 1764.56977,1042.726 C1767.73061,1045.886 1768.67556,1050.636 1766.96465,1054.765 C1765.25373,1058.894 1761.22693,1061.586 1756.75816,1061.586 C1750.66746,1061.566 1745.74171,1056.629 1745.74171,1050.539 L1745.71071,1050.539 Z" id="Stroke-17" stroke-width="6.862673"></path>
            <path d="M1860.34398,880.617 L1811.10544,796.277 L1790.21049,884.703 C1790.21049,884.703 1800.26598,876.605 1824.83175,875.058 C1847.44162,873.617 1860.34398,880.617 1860.34398,880.617 Z" id="Stroke-18" stroke-width="6.862673"></path>
            <path d="M1861.9919,1050.16 L1812.65236,1134.504 L1791.75341,1046.078 C1791.75341,1046.078 1801.80891,1054.175 1826.37468,1055.718 C1849.05454,1057.195 1861.9919,1050.16 1861.9919,1050.16 Z" id="Stroke-19" stroke-width="6.862673"></path>
            <path d="M162.019899,965.199 C162.019899,1000.656 133.277336,1029.402 97.8241086,1029.402 C62.3678815,1029.402 33.6253187,1000.656 33.6253187,965.199 C33.6253187,929.742 62.3678815,901 97.8241086,901 C133.277336,901 162.019899,929.742 162.019899,965.199 Z" id="Stroke-20" stroke-width="6.862673"></path>
            <path d="M1895.27323,965.199 C1895.27323,1000.656 1866.53067,1029.402 1831.07844,1029.402 C1795.62121,1029.402 1766.87865,1000.656 1766.87865,965.199 C1766.87865,929.742 1795.62121,901 1831.07844,901 C1866.53067,901 1895.27323,929.742 1895.27323,965.199 Z" id="Stroke-21" stroke-width="6.862673"></path>
            <path d="M116.113194,1134.504 C116.113194,1134.504 119.270036,1155.914 122.289885,1168.027" id="Stroke-22" stroke-width="6.862673"></path>
            <path d="M127.39863,764.125 C127.39863,764.125 120.847957,784.711 118.239088,796.961" id="Stroke-23" stroke-width="6.862673"></path>
            <path d="M1813.13234,1134.504 C1813.13234,1134.504 1809.9765,1155.914 1806.95665,1168.027" id="Stroke-24" stroke-width="6.862673"></path>
            <path d="M1801.8439,764.125 C1801.8439,764.125 1808.39858,784.711 1811.00345,796.961" id="Stroke-25" stroke-width="6.862673"></path>
        </g>
        <g id="lower-text" transform="translate(390.000000, 936.988000)">
            <g id="Group-71" transform="translate(147.000000, 389.012000)">
                <mask id="mask-2" fill="white">
                    <use xlink:href="#path-1"></use>
                </mask>
                <g id="Clip-70"></g>
                <path d="M127.84,78.223 C140.23,49.863 123.137,30.707 95.98,18.848 L50.449,-1.043 L-3.707,122.957 L26.246,136.051 L46.668,89.285 L61.559,95.785 C87.48,107.098 115.293,106.941 127.84,78.223 Z M97.809,65.316 C92.684,77.051 80.887,75.863 69.684,70.973 L57.074,65.473 L69.855,36.223 L82.996,41.957 C93.668,46.613 103.012,53.41 97.809,65.316 Z" id="Fill-69" fill="#0D1321" mask="url(#mask-2)"></path>
            </g>
            <g id="Group-81" transform="translate(0.000000, 0.012000)">
                <polygon id="Fill-72" fill="#0D1321" points="365.645 590.238 373.004 563.316 312.348 546.723 319.77 519.629 373.957 534.457 380.863 509.191 326.676 494.363 333.379 469.848 390.707 485.535 398.02 458.816 310.27 434.816 274.566 565.332"></polygon>
                <path d="M526.688,593.59 L506.609,569.668 C499.984,576.965 489.25,581.48 476.531,579.98 C454.141,577.324 440.344,558.762 443.234,534.277 C446.047,510.559 464.25,494.98 486.844,497.652 C497.078,498.855 507.438,504.137 512.531,513.199 L537.141,493.793 C527.469,479.559 507.953,470.309 489.156,468.09 C448.156,463.246 413.031,487.012 407.938,530.105 C402.969,572.23 430.5,604.73 471.875,609.621 C494.453,612.293 513.297,605.871 526.688,593.59 Z" id="Fill-73" fill="#0D1321"></path>
                <path d="M694.523,536.859 C692.008,493.562 659.148,468.078 616.789,470.547 C574.617,472.984 544.898,502.109 547.414,545.406 C549.898,588.156 582.867,615.328 625.039,612.891 C667.398,610.422 697.008,579.609 694.523,536.859 Z M659.617,538.891 C661.039,563.328 646.023,581.797 623.32,583.125 C600.617,584.438 583.758,567.812 582.336,543.375 C580.961,519.719 595.602,501.266 618.492,499.938 C641.383,498.609 658.242,515.234 659.617,538.891 Z" id="Fill-74" fill="#0D1321"></path>
                <path d="M848.547,571.309 L800.859,523.059 C816.562,513.855 824,498.746 819.828,481.074 C812.734,450.949 785.344,447.199 760.047,453.152 L709.812,464.98 L740.844,596.684 L772.094,589.324 L759.781,537.059 L770.578,534.512 L811.359,580.074 L848.547,571.309 Z M788.531,489.043 C791.688,502.449 779.453,508.059 769.219,510.48 L754.172,514.027 L746.938,483.34 L763.859,479.355 C773.344,477.121 785.641,476.777 788.531,489.043 Z" id="Fill-75" fill="#0D1321"></path>
                <path d="M1001.387,510.891 L897.84,407.25 L868.512,419.344 L867.668,566.078 L900.527,552.516 L899.574,524.188 L947.98,504.203 L967.824,524.734 L1001.387,510.891 Z M929.699,483.406 L898.23,496.391 L896.418,446.906 L929.699,483.406 Z" id="Fill-76" fill="#0D1321"></path>
                <polygon id="Fill-77" fill="#424B54" points="1004.637 63.82 1004.637 1.852 991.152 1.852 970.762 16.82 978.387 27.242 989.934 18.305 989.934 63.82"></polygon>
                <path d="M1074.438,22.336 C1074.438,8.773 1063.578,0.195 1050.016,0.195 C1036.625,0.195 1025.594,8.602 1025.594,22.695 C1025.594,34.758 1035.141,42.898 1045.984,42.898 C1047.391,42.898 1049.141,42.648 1050.375,42.211 L1050.188,42.461 L1034.797,63.82 L1052.562,63.82 L1067.516,41.508 C1071.641,35.383 1074.438,29.695 1074.438,22.336 Z M1059.734,22.164 C1059.734,27.945 1055.703,31.961 1049.938,31.961 C1044.156,31.961 1040.297,27.852 1040.297,22.258 C1040.297,16.383 1044.234,12.273 1050.109,12.273 C1055.969,12.273 1059.734,16.82 1059.734,22.164 Z" id="Fill-78" fill="#424B54"></path>
                <path d="M1131.016,22.336 C1131.016,8.773 1120.156,0.195 1106.594,0.195 C1093.203,0.195 1082.172,8.602 1082.172,22.695 C1082.172,34.758 1091.719,42.898 1102.562,42.898 C1103.969,42.898 1105.719,42.648 1106.953,42.211 L1106.766,42.461 L1091.375,63.82 L1109.141,63.82 L1124.094,41.508 C1128.219,35.383 1131.016,29.695 1131.016,22.336 Z M1116.312,22.164 C1116.312,27.945 1112.281,31.961 1106.516,31.961 C1100.734,31.961 1096.875,27.852 1096.875,22.258 C1096.875,16.383 1100.812,12.273 1106.688,12.273 C1112.547,12.273 1116.312,16.82 1116.312,22.164 Z M1187.426,32.664 C1187.426,15.164 1180.77,0.195 1163.27,0.195 C1145.676,0.195 1138.941,15.164 1138.941,32.664 C1138.941,50.258 1145.676,65.477 1163.27,65.477 C1180.77,65.477 1187.426,50.258 1187.426,32.664 Z M1172.363,32.664 C1172.363,40.633 1170.973,52.883 1163.27,52.883 C1155.473,52.883 1153.988,40.633 1153.988,32.664 C1153.988,24.883 1155.473,12.617 1163.27,12.617 C1170.973,12.617 1172.363,24.883 1172.363,32.664 Z" id="Fill-79" fill="#424B54"></path>
                <polygon id="Fill-80" fill="#424B54" points="44.523 65.082 44.523 51.988 15.039 51.988 15.039 38.816 41.398 38.816 41.398 26.535 15.039 26.535 15.039 14.613 42.914 14.613 42.914 1.598 0.242 1.598 0.242 65.082"></polygon>
            </g>
            <path d="M98.004,7.797 C92.457,2.688 84.379,0 77.207,0 C65.379,0 52.645,5.828 52.645,19.907 C52.645,31.391 60.801,35.5 68.863,38.11 C77.207,40.797 82.051,42.328 82.051,47.157 C82.051,52.266 77.926,54.063 73.27,54.063 C68.238,54.063 62.598,51.203 59.551,47.344 L49.504,57.563 C55.066,63.391 64.207,66.703 73.27,66.703 C85.816,66.703 97.566,60.157 97.566,45.547 C97.566,32.907 86.441,29.235 77.832,26.453 C71.832,24.563 68.066,23.219 68.066,19.016 C68.066,13.985 72.988,12.641 76.941,12.641 C80.879,12.641 85.629,14.797 88.238,18.11 L98.004,7.797 Z" id="Fill-82" fill="#424B54"></path>
            <g id="Group-86" transform="translate(100.000000, 1.012000)" fill="#424B54">
                <polygon id="Fill-84" points="51.633 13.691 51.633 0.598 0.445 0.598 0.445 13.691 18.367 13.691 18.367 64.082 33.695 64.082 33.695 13.691"></polygon>
                <path d="M67.5,56.191 C67.5,51.254 63.375,47.41 58.531,47.41 C53.516,47.41 49.391,51.441 49.391,56.285 C49.391,61.207 53.609,64.973 58.531,64.973 C63.375,64.973 67.5,61.129 67.5,56.191 Z" id="Fill-85"></path>
            </g>
        </g>
        <g id="upper-text" transform="translate(552.000000, 397.000000)">
            <g id="Group-89" transform="translate(0.000000, 51.000000)">
                <mask id="mask-4" fill="white">
                    <use xlink:href="#path-3"></use>
                </mask>
                <g id="Clip-88"></g>
                <polygon id="Fill-87" fill="#0D1321" mask="url(#mask-4)" points="160.555 124.344 109.305 0.969 80.383 12.984 114.508 93.188 113.992 93.406 31.055 33.469 -2.898 47.578 48.352 170.953 77.258 158.938 43.055 78.547 43.57 78.344 126.758 138.375"></polygon>
            </g>
            <g id="Group-95" transform="translate(155.000000, 0.000000)" fill="#0D1321">
                <polygon id="Fill-90" points="121.781 147.004 115.422 120.207 55.016 134.551 48.609 107.566 102.578 94.754 96.609 69.582 42.641 82.395 36.844 57.988 93.953 44.426 87.641 17.801 0.25 38.535 31.094 168.52"></polygon>
                <polygon id="Fill-91" points="227.543 135.785 224.73 107.816 173.309 113.004 162.715 8.051 130.434 11.316 143.84 144.238"></polygon>
                <path d="M338.191,17.883 C326.832,6.773 310.035,0.602 294.941,0.148 C270.051,-0.602 242.895,10.852 242.004,40.461 C241.27,64.586 258.16,73.789 274.988,79.773 C292.348,85.945 302.441,89.477 302.129,99.664 C301.801,110.414 293.004,113.93 283.191,113.633 C272.645,113.32 260.941,106.914 254.77,98.602 L233.004,119.461 C244.332,132.086 263.348,139.633 282.379,140.211 C308.801,141.008 333.926,127.992 334.848,97.242 C335.66,70.664 312.504,62.227 294.566,55.82 C282.066,51.477 274.223,48.43 274.488,39.555 C274.816,28.992 285.254,26.477 293.551,26.727 C301.863,26.977 311.723,31.789 316.988,38.945 L338.191,17.883 Z" id="Fill-92"></path>
                <path d="M503.547,100.176 C511.891,58.16 486.781,25.66 445.703,17.504 C404.812,9.395 369.203,29.832 360.859,71.848 C352.641,113.301 377.406,147.457 418.297,155.566 C459.375,163.723 495.328,141.629 503.547,100.176 Z M469.688,93.457 C464.984,117.145 446.047,131.082 424.031,126.707 C402,122.332 390.016,102.254 394.719,78.566 C399.281,55.598 417.828,41.598 440.047,46.004 C462.25,50.41 474.25,70.488 469.688,93.457 Z" id="Fill-93"></path>
                <polygon id="Fill-94" points="620.918 218.105 670.84 94.184 641.793 82.48 609.918 163.621 609.387 163.418 592.262 62.527 558.137 48.793 508.215 172.715 537.262 184.402 569.199 103.09 569.73 103.309 586.98 204.434"></polygon>
            </g>
        </g>
    </g>
</svg>
